<mxfile host="app.diagrams.net" modified="2020-12-13T12:24:56.960Z" agent="5.0 (Windows NT 10.0; Win64; x64) AppleWebKit/537.36 (KHTML, like Gecko) Chrome/87.0.4280.88 Safari/537.36" etag="TbN5dZATISXAyWICL_vB" version="14.0.1" type="github">
  <diagram id="R2lEEEUBdFMjLlhIrx00" name="Page-1">
    <mxGraphModel dx="2010" dy="1557" grid="1" gridSize="10" guides="1" tooltips="1" connect="1" arrows="1" fold="1" page="1" pageScale="1" pageWidth="850" pageHeight="1100" math="0" shadow="0" extFonts="Permanent Marker^https://fonts.googleapis.com/css?family=Permanent+Marker">
      <root>
        <mxCell id="0" />
        <mxCell id="1" parent="0" />
        <mxCell id="vepkWiXUaqZkskB5NhW0-733" value="user" style="swimlane;childLayout=stackLayout;horizontal=1;startSize=30;horizontalStack=0;rounded=1;fontSize=14;fontStyle=0;strokeWidth=2;resizeParent=0;resizeLast=1;shadow=0;dashed=0;align=center;" vertex="1" parent="1">
          <mxGeometry x="380" y="230" width="160" height="100" as="geometry" />
        </mxCell>
        <mxCell id="vepkWiXUaqZkskB5NhW0-734" value="name&#xa;surname&#xa;email&#xa;password" style="align=left;strokeColor=none;fillColor=none;spacingLeft=4;fontSize=12;verticalAlign=top;resizable=0;rotatable=0;part=1;" vertex="1" parent="vepkWiXUaqZkskB5NhW0-733">
          <mxGeometry y="30" width="160" height="70" as="geometry" />
        </mxCell>
        <mxCell id="vepkWiXUaqZkskB5NhW0-740" style="edgeStyle=orthogonalEdgeStyle;rounded=0;orthogonalLoop=1;jettySize=auto;html=1;exitX=0.5;exitY=1;exitDx=0;exitDy=0;" edge="1" parent="vepkWiXUaqZkskB5NhW0-733" source="vepkWiXUaqZkskB5NhW0-734" target="vepkWiXUaqZkskB5NhW0-734">
          <mxGeometry relative="1" as="geometry" />
        </mxCell>
        <mxCell id="vepkWiXUaqZkskB5NhW0-759" style="edgeStyle=orthogonalEdgeStyle;rounded=0;orthogonalLoop=1;jettySize=auto;html=1;exitX=0.5;exitY=1;exitDx=0;exitDy=0;" edge="1" parent="vepkWiXUaqZkskB5NhW0-733" source="vepkWiXUaqZkskB5NhW0-734" target="vepkWiXUaqZkskB5NhW0-734">
          <mxGeometry relative="1" as="geometry" />
        </mxCell>
        <mxCell id="vepkWiXUaqZkskB5NhW0-736" value="advisor" style="swimlane;childLayout=stackLayout;horizontal=1;startSize=30;horizontalStack=0;rounded=1;fontSize=14;fontStyle=0;strokeWidth=2;resizeParent=0;resizeLast=1;shadow=0;dashed=0;align=center;" vertex="1" parent="1">
          <mxGeometry x="60" y="230" width="160" height="80" as="geometry" />
        </mxCell>
        <mxCell id="vepkWiXUaqZkskB5NhW0-737" value="advisor_id&#xa;department" style="align=left;strokeColor=none;fillColor=none;spacingLeft=4;fontSize=12;verticalAlign=top;resizable=0;rotatable=0;part=1;" vertex="1" parent="vepkWiXUaqZkskB5NhW0-736">
          <mxGeometry y="30" width="160" height="50" as="geometry" />
        </mxCell>
        <mxCell id="vepkWiXUaqZkskB5NhW0-749" value="" style="swimlane;childLayout=stackLayout;horizontal=1;startSize=30;horizontalStack=0;rounded=1;fontSize=14;fontStyle=0;strokeWidth=2;resizeParent=0;resizeLast=1;shadow=0;dashed=0;align=center;" vertex="1" parent="vepkWiXUaqZkskB5NhW0-736">
          <mxGeometry y="80" width="160" as="geometry" />
        </mxCell>
        <mxCell id="vepkWiXUaqZkskB5NhW0-793" style="edgeStyle=orthogonalEdgeStyle;rounded=0;orthogonalLoop=1;jettySize=auto;html=1;exitX=0;exitY=0.5;exitDx=0;exitDy=0;entryX=1;entryY=0.5;entryDx=0;entryDy=0;" edge="1" parent="1" source="vepkWiXUaqZkskB5NhW0-738" target="vepkWiXUaqZkskB5NhW0-792">
          <mxGeometry relative="1" as="geometry" />
        </mxCell>
        <mxCell id="vepkWiXUaqZkskB5NhW0-738" value="student" style="swimlane;childLayout=stackLayout;horizontal=1;startSize=30;horizontalStack=0;rounded=1;fontSize=14;fontStyle=0;strokeWidth=2;resizeParent=0;resizeLast=1;shadow=0;dashed=0;align=center;" vertex="1" parent="1">
          <mxGeometry x="280" y="430" width="160" height="80" as="geometry" />
        </mxCell>
        <mxCell id="vepkWiXUaqZkskB5NhW0-739" value="student_number&#xa;department" style="align=left;strokeColor=none;fillColor=none;spacingLeft=4;fontSize=12;verticalAlign=top;resizable=0;rotatable=0;part=1;" vertex="1" parent="vepkWiXUaqZkskB5NhW0-738">
          <mxGeometry y="30" width="160" height="50" as="geometry" />
        </mxCell>
        <mxCell id="vepkWiXUaqZkskB5NhW0-741" value="notification" style="swimlane;childLayout=stackLayout;horizontal=1;startSize=30;horizontalStack=0;rounded=1;fontSize=14;fontStyle=0;strokeWidth=2;resizeParent=0;resizeLast=1;shadow=0;dashed=0;align=center;" vertex="1" parent="1">
          <mxGeometry x="170" y="20" width="160" height="90" as="geometry" />
        </mxCell>
        <mxCell id="vepkWiXUaqZkskB5NhW0-742" value="type&#xa;date&#xa;text" style="align=left;strokeColor=none;fillColor=none;spacingLeft=4;fontSize=12;verticalAlign=top;resizable=0;rotatable=0;part=1;" vertex="1" parent="vepkWiXUaqZkskB5NhW0-741">
          <mxGeometry y="30" width="160" height="60" as="geometry" />
        </mxCell>
        <mxCell id="vepkWiXUaqZkskB5NhW0-743" value="department&#39;s chair" style="swimlane;childLayout=stackLayout;horizontal=1;startSize=30;horizontalStack=0;rounded=1;fontSize=14;fontStyle=0;strokeWidth=2;resizeParent=0;resizeLast=1;shadow=0;dashed=0;align=center;" vertex="1" parent="1">
          <mxGeometry x="670" y="110" width="160" height="80" as="geometry" />
        </mxCell>
        <mxCell id="vepkWiXUaqZkskB5NhW0-744" value="department&#39;_chair_id&#xa;department" style="align=left;strokeColor=none;fillColor=none;spacingLeft=4;fontSize=12;verticalAlign=top;resizable=0;rotatable=0;part=1;" vertex="1" parent="vepkWiXUaqZkskB5NhW0-743">
          <mxGeometry y="30" width="160" height="50" as="geometry" />
        </mxCell>
        <mxCell id="vepkWiXUaqZkskB5NhW0-745" value="jury" style="swimlane;childLayout=stackLayout;horizontal=1;startSize=30;horizontalStack=0;rounded=1;fontSize=14;fontStyle=0;strokeWidth=2;resizeParent=0;resizeLast=1;shadow=0;dashed=0;align=center;" vertex="1" parent="1">
          <mxGeometry x="680" y="320" width="160" height="60" as="geometry" />
        </mxCell>
        <mxCell id="vepkWiXUaqZkskB5NhW0-746" value="jury_id" style="align=left;strokeColor=none;fillColor=none;spacingLeft=4;fontSize=12;verticalAlign=top;resizable=0;rotatable=0;part=1;" vertex="1" parent="vepkWiXUaqZkskB5NhW0-745">
          <mxGeometry y="30" width="160" height="30" as="geometry" />
        </mxCell>
        <mxCell id="vepkWiXUaqZkskB5NhW0-790" style="edgeStyle=orthogonalEdgeStyle;rounded=0;orthogonalLoop=1;jettySize=auto;html=1;entryX=0.5;entryY=1;entryDx=0;entryDy=0;" edge="1" parent="1" source="vepkWiXUaqZkskB5NhW0-747" target="vepkWiXUaqZkskB5NhW0-787">
          <mxGeometry relative="1" as="geometry" />
        </mxCell>
        <mxCell id="vepkWiXUaqZkskB5NhW0-747" value="thesis" style="swimlane;childLayout=stackLayout;horizontal=1;startSize=30;horizontalStack=0;rounded=1;fontSize=14;fontStyle=0;strokeWidth=2;resizeParent=0;resizeLast=1;shadow=0;dashed=0;align=center;" vertex="1" parent="1">
          <mxGeometry x="500" y="700" width="160" height="80" as="geometry" />
        </mxCell>
        <mxCell id="vepkWiXUaqZkskB5NhW0-748" value="thesis_topic&#xa;thesis_subject" style="align=left;strokeColor=none;fillColor=none;spacingLeft=4;fontSize=12;verticalAlign=top;resizable=0;rotatable=0;part=1;" vertex="1" parent="vepkWiXUaqZkskB5NhW0-747">
          <mxGeometry y="30" width="160" height="50" as="geometry" />
        </mxCell>
        <mxCell id="vepkWiXUaqZkskB5NhW0-788" style="edgeStyle=orthogonalEdgeStyle;rounded=0;orthogonalLoop=1;jettySize=auto;html=1;exitX=0.25;exitY=0;exitDx=0;exitDy=0;entryX=1;entryY=0.5;entryDx=0;entryDy=0;" edge="1" parent="1" source="vepkWiXUaqZkskB5NhW0-755" target="vepkWiXUaqZkskB5NhW0-786">
          <mxGeometry relative="1" as="geometry" />
        </mxCell>
        <mxCell id="vepkWiXUaqZkskB5NhW0-755" value="thesis defense exam" style="swimlane;childLayout=stackLayout;horizontal=1;startSize=30;horizontalStack=0;rounded=1;fontSize=14;fontStyle=0;strokeWidth=2;resizeParent=0;resizeLast=1;shadow=0;dashed=0;align=center;" vertex="1" parent="1">
          <mxGeometry x="590" y="520" width="160" height="80" as="geometry" />
        </mxCell>
        <mxCell id="vepkWiXUaqZkskB5NhW0-756" value="result_status&#xa;date" style="align=left;strokeColor=none;fillColor=none;spacingLeft=4;fontSize=12;verticalAlign=top;resizable=0;rotatable=0;part=1;" vertex="1" parent="vepkWiXUaqZkskB5NhW0-755">
          <mxGeometry y="30" width="160" height="50" as="geometry" />
        </mxCell>
        <mxCell id="vepkWiXUaqZkskB5NhW0-796" style="edgeStyle=orthogonalEdgeStyle;rounded=0;orthogonalLoop=1;jettySize=auto;html=1;exitX=0.25;exitY=0;exitDx=0;exitDy=0;entryX=0.5;entryY=1;entryDx=0;entryDy=0;" edge="1" parent="1" source="vepkWiXUaqZkskB5NhW0-757" target="vepkWiXUaqZkskB5NhW0-795">
          <mxGeometry relative="1" as="geometry" />
        </mxCell>
        <mxCell id="vepkWiXUaqZkskB5NhW0-757" value="course" style="swimlane;childLayout=stackLayout;horizontal=1;startSize=30;horizontalStack=0;rounded=1;fontSize=14;fontStyle=0;strokeWidth=2;resizeParent=0;resizeLast=1;shadow=0;dashed=0;align=center;" vertex="1" parent="1">
          <mxGeometry x="30" y="540" width="160" height="100" as="geometry" />
        </mxCell>
        <mxCell id="vepkWiXUaqZkskB5NhW0-758" value="course_name&#xa;semester&#xa;year&#xa;instructor" style="align=left;strokeColor=none;fillColor=none;spacingLeft=4;fontSize=12;verticalAlign=top;resizable=0;rotatable=0;part=1;" vertex="1" parent="vepkWiXUaqZkskB5NhW0-757">
          <mxGeometry y="30" width="160" height="70" as="geometry" />
        </mxCell>
        <mxCell id="vepkWiXUaqZkskB5NhW0-776" style="edgeStyle=orthogonalEdgeStyle;rounded=0;orthogonalLoop=1;jettySize=auto;html=1;exitX=0.5;exitY=1;exitDx=0;exitDy=0;entryX=0.316;entryY=-0.045;entryDx=0;entryDy=0;entryPerimeter=0;" edge="1" parent="1" source="vepkWiXUaqZkskB5NhW0-763" target="vepkWiXUaqZkskB5NhW0-733">
          <mxGeometry relative="1" as="geometry" />
        </mxCell>
        <mxCell id="vepkWiXUaqZkskB5NhW0-763" value="fills" style="shape=rhombus;perimeter=rhombusPerimeter;whiteSpace=wrap;html=1;align=center;" vertex="1" parent="1">
          <mxGeometry x="350" y="90" width="120" height="60" as="geometry" />
        </mxCell>
        <mxCell id="vepkWiXUaqZkskB5NhW0-770" style="edgeStyle=orthogonalEdgeStyle;rounded=0;orthogonalLoop=1;jettySize=auto;html=1;exitX=0.5;exitY=1;exitDx=0;exitDy=0;entryX=0.25;entryY=0;entryDx=0;entryDy=0;" edge="1" parent="1" source="vepkWiXUaqZkskB5NhW0-764" target="vepkWiXUaqZkskB5NhW0-733">
          <mxGeometry relative="1" as="geometry" />
        </mxCell>
        <mxCell id="vepkWiXUaqZkskB5NhW0-772" style="edgeStyle=orthogonalEdgeStyle;rounded=0;orthogonalLoop=1;jettySize=auto;html=1;" edge="1" parent="1" source="vepkWiXUaqZkskB5NhW0-764" target="vepkWiXUaqZkskB5NhW0-742">
          <mxGeometry relative="1" as="geometry" />
        </mxCell>
        <mxCell id="vepkWiXUaqZkskB5NhW0-764" value="takes" style="shape=rhombus;perimeter=rhombusPerimeter;whiteSpace=wrap;html=1;align=center;" vertex="1" parent="1">
          <mxGeometry x="230" y="150" width="120" height="60" as="geometry" />
        </mxCell>
        <mxCell id="vepkWiXUaqZkskB5NhW0-775" style="edgeStyle=orthogonalEdgeStyle;rounded=0;orthogonalLoop=1;jettySize=auto;html=1;exitX=1;exitY=0.25;exitDx=0;exitDy=0;entryX=0.5;entryY=0;entryDx=0;entryDy=0;" edge="1" parent="1" source="vepkWiXUaqZkskB5NhW0-742" target="vepkWiXUaqZkskB5NhW0-763">
          <mxGeometry relative="1" as="geometry" />
        </mxCell>
        <mxCell id="vepkWiXUaqZkskB5NhW0-778" style="edgeStyle=orthogonalEdgeStyle;rounded=0;orthogonalLoop=1;jettySize=auto;html=1;exitX=0;exitY=0.5;exitDx=0;exitDy=0;entryX=0.914;entryY=-0.014;entryDx=0;entryDy=0;entryPerimeter=0;" edge="1" parent="1" source="vepkWiXUaqZkskB5NhW0-777" target="vepkWiXUaqZkskB5NhW0-733">
          <mxGeometry relative="1" as="geometry" />
        </mxCell>
        <mxCell id="vepkWiXUaqZkskB5NhW0-779" style="edgeStyle=orthogonalEdgeStyle;rounded=0;orthogonalLoop=1;jettySize=auto;html=1;exitX=1;exitY=0.5;exitDx=0;exitDy=0;entryX=0;entryY=0.5;entryDx=0;entryDy=0;" edge="1" parent="1" source="vepkWiXUaqZkskB5NhW0-777" target="vepkWiXUaqZkskB5NhW0-743">
          <mxGeometry relative="1" as="geometry" />
        </mxCell>
        <mxCell id="vepkWiXUaqZkskB5NhW0-777" value="is-a" style="shape=rhombus;perimeter=rhombusPerimeter;whiteSpace=wrap;html=1;align=center;" vertex="1" parent="1">
          <mxGeometry x="530" y="120" width="120" height="60" as="geometry" />
        </mxCell>
        <mxCell id="vepkWiXUaqZkskB5NhW0-781" style="edgeStyle=orthogonalEdgeStyle;rounded=0;orthogonalLoop=1;jettySize=auto;html=1;entryX=1;entryY=0.25;entryDx=0;entryDy=0;" edge="1" parent="1" source="vepkWiXUaqZkskB5NhW0-780" target="vepkWiXUaqZkskB5NhW0-734">
          <mxGeometry relative="1" as="geometry" />
        </mxCell>
        <mxCell id="vepkWiXUaqZkskB5NhW0-782" style="edgeStyle=orthogonalEdgeStyle;rounded=0;orthogonalLoop=1;jettySize=auto;html=1;exitX=1;exitY=0.5;exitDx=0;exitDy=0;entryX=0.438;entryY=0.017;entryDx=0;entryDy=0;entryPerimeter=0;" edge="1" parent="1" source="vepkWiXUaqZkskB5NhW0-780" target="vepkWiXUaqZkskB5NhW0-745">
          <mxGeometry relative="1" as="geometry" />
        </mxCell>
        <mxCell id="vepkWiXUaqZkskB5NhW0-780" value="is-a" style="shape=rhombus;perimeter=rhombusPerimeter;whiteSpace=wrap;html=1;align=center;" vertex="1" parent="1">
          <mxGeometry x="610" y="240" width="120" height="60" as="geometry" />
        </mxCell>
        <mxCell id="vepkWiXUaqZkskB5NhW0-784" style="edgeStyle=orthogonalEdgeStyle;rounded=0;orthogonalLoop=1;jettySize=auto;html=1;entryX=0.5;entryY=1;entryDx=0;entryDy=0;" edge="1" parent="1" source="vepkWiXUaqZkskB5NhW0-783" target="vepkWiXUaqZkskB5NhW0-746">
          <mxGeometry relative="1" as="geometry" />
        </mxCell>
        <mxCell id="vepkWiXUaqZkskB5NhW0-785" style="edgeStyle=orthogonalEdgeStyle;rounded=0;orthogonalLoop=1;jettySize=auto;html=1;exitX=0.5;exitY=1;exitDx=0;exitDy=0;" edge="1" parent="1" source="vepkWiXUaqZkskB5NhW0-783" target="vepkWiXUaqZkskB5NhW0-755">
          <mxGeometry relative="1" as="geometry" />
        </mxCell>
        <mxCell id="vepkWiXUaqZkskB5NhW0-783" value="judges" style="shape=rhombus;perimeter=rhombusPerimeter;whiteSpace=wrap;html=1;align=center;" vertex="1" parent="1">
          <mxGeometry x="700" y="420" width="120" height="40" as="geometry" />
        </mxCell>
        <mxCell id="vepkWiXUaqZkskB5NhW0-789" style="edgeStyle=orthogonalEdgeStyle;rounded=0;orthogonalLoop=1;jettySize=auto;html=1;entryX=1;entryY=0;entryDx=0;entryDy=0;" edge="1" parent="1" source="vepkWiXUaqZkskB5NhW0-786" target="vepkWiXUaqZkskB5NhW0-738">
          <mxGeometry relative="1" as="geometry">
            <mxPoint x="450" y="440" as="targetPoint" />
          </mxGeometry>
        </mxCell>
        <mxCell id="vepkWiXUaqZkskB5NhW0-786" value="takes" style="shape=rhombus;perimeter=rhombusPerimeter;whiteSpace=wrap;html=1;align=center;" vertex="1" parent="1">
          <mxGeometry x="490" y="410" width="120" height="60" as="geometry" />
        </mxCell>
        <mxCell id="vepkWiXUaqZkskB5NhW0-791" style="edgeStyle=orthogonalEdgeStyle;rounded=0;orthogonalLoop=1;jettySize=auto;html=1;exitX=0.5;exitY=0;exitDx=0;exitDy=0;entryX=1;entryY=0.25;entryDx=0;entryDy=0;" edge="1" parent="1" source="vepkWiXUaqZkskB5NhW0-787" target="vepkWiXUaqZkskB5NhW0-739">
          <mxGeometry relative="1" as="geometry" />
        </mxCell>
        <mxCell id="vepkWiXUaqZkskB5NhW0-787" value="works" style="shape=rhombus;perimeter=rhombusPerimeter;whiteSpace=wrap;html=1;align=center;" vertex="1" parent="1">
          <mxGeometry x="410" y="550" width="120" height="60" as="geometry" />
        </mxCell>
        <mxCell id="vepkWiXUaqZkskB5NhW0-794" style="edgeStyle=orthogonalEdgeStyle;rounded=0;orthogonalLoop=1;jettySize=auto;html=1;entryX=0.558;entryY=-0.023;entryDx=0;entryDy=0;entryPerimeter=0;" edge="1" parent="1" source="vepkWiXUaqZkskB5NhW0-792" target="vepkWiXUaqZkskB5NhW0-757">
          <mxGeometry relative="1" as="geometry" />
        </mxCell>
        <mxCell id="vepkWiXUaqZkskB5NhW0-792" value="enrolls" style="shape=rhombus;perimeter=rhombusPerimeter;whiteSpace=wrap;html=1;align=center;" vertex="1" parent="1">
          <mxGeometry x="110" y="440" width="120" height="60" as="geometry" />
        </mxCell>
        <mxCell id="vepkWiXUaqZkskB5NhW0-797" style="edgeStyle=orthogonalEdgeStyle;rounded=0;orthogonalLoop=1;jettySize=auto;html=1;entryX=0.25;entryY=1;entryDx=0;entryDy=0;" edge="1" parent="1" source="vepkWiXUaqZkskB5NhW0-795" target="vepkWiXUaqZkskB5NhW0-737">
          <mxGeometry relative="1" as="geometry" />
        </mxCell>
        <mxCell id="vepkWiXUaqZkskB5NhW0-795" value="approves" style="shape=rhombus;perimeter=rhombusPerimeter;whiteSpace=wrap;html=1;align=center;" vertex="1" parent="1">
          <mxGeometry x="40" y="360" width="120" height="60" as="geometry" />
        </mxCell>
        <mxCell id="vepkWiXUaqZkskB5NhW0-800" style="edgeStyle=orthogonalEdgeStyle;rounded=0;orthogonalLoop=1;jettySize=auto;html=1;exitX=1;exitY=0.5;exitDx=0;exitDy=0;entryX=0;entryY=0.5;entryDx=0;entryDy=0;" edge="1" parent="1" source="vepkWiXUaqZkskB5NhW0-798" target="vepkWiXUaqZkskB5NhW0-733">
          <mxGeometry relative="1" as="geometry" />
        </mxCell>
        <mxCell id="vepkWiXUaqZkskB5NhW0-798" value="is-a" style="shape=rhombus;perimeter=rhombusPerimeter;whiteSpace=wrap;html=1;align=center;" vertex="1" parent="1">
          <mxGeometry x="230" y="320" width="120" height="60" as="geometry" />
        </mxCell>
        <mxCell id="vepkWiXUaqZkskB5NhW0-799" style="edgeStyle=orthogonalEdgeStyle;rounded=0;orthogonalLoop=1;jettySize=auto;html=1;exitX=1;exitY=0.5;exitDx=0;exitDy=0;entryX=0.5;entryY=0;entryDx=0;entryDy=0;" edge="1" parent="1" source="vepkWiXUaqZkskB5NhW0-737" target="vepkWiXUaqZkskB5NhW0-798">
          <mxGeometry relative="1" as="geometry" />
        </mxCell>
      </root>
    </mxGraphModel>
  </diagram>
</mxfile>
